<svg width="40" height="40" viewBox="0 0 24 24" fill="none" xmlns="http://www.w3.org/2000/svg"><path d="M19.34 20.773c1.654-.102 2.37-.877 2.531-2.628.126-1.364.172-2.046.234-3.411.074-1.629.908-2.566 1.713-3.002.242-.136.24-.45 0-.6-.84-.5-1.653-1.56-1.716-2.961a61 61 0 0 0-.233-3.35c-.175-1.888-.782-2.489-2.438-2.592-4.95-.263-9.912-.262-14.862.003-1.654.104-2.263.704-2.438 2.592-.124 1.34-.17 2.01-.232 3.35-.066 1.402-.877 2.462-1.717 2.96a.34.34 0 0 0-.182.3.34.34 0 0 0 .182.3c.807.423 1.64 1.36 1.713 3.003.062 1.364.108 2.046.234 3.412.162 1.75.877 2.525 2.531 2.627 4.905.26 9.777.26 14.68 0zm-7.38-3.028c-1.508.083-3.387-.645-4.462-1.688a.9.9 0 0 1-.303-.665.78.78 0 0 1 .179-.548l.375-.483c.19-.234.395-.343.636-.341.272.002.53.114.805.29a5.33 5.33 0 0 0 2.977.882c.877 0 1.682-.49 1.587-1.114-.375-2.477-6.598-1.05-6.505-5.196.05-2.182 2.26-3.712 4.428-3.66 1.68.043 3.004.525 3.969 1.14.24.16.407.48.414.795a.86.86 0 0 1-.148.519l-.28.422c-.203.282-.442.422-.746.42-.208 0-.434-.08-.675-.193a5.05 5.05 0 0 0-2.381-.561c-.94 0-1.574.597-1.507 1.035.375 2.454 6.423 1.012 6.508 5.1.051 2.524-2.68 3.82-4.874 3.848z" fill="#191A1B"/></svg>
