<svg width="40" height="40" viewBox="0 0 24 24" fill="none" xmlns="http://www.w3.org/2000/svg">
<path d="M3.75931 6.54248C3.75931 7.67494 3.76059 8.6165 3.52005 9.4458C3.26323 10.3308 2.75384 11.0351 1.88431 11.7935C1.79645 11.8701 1.77506 11.946 1.77493 11.9995C1.77493 12.053 1.79618 12.1297 1.88431 12.2065C2.75384 12.9649 3.26324 13.6692 3.52005 14.5542C3.76059 15.3835 3.75931 16.325 3.75931 17.4575C3.7595 18.1557 4.4446 18.8901 5.51224 18.8901C5.92645 18.8901 6.26224 19.2259 6.26224 19.6401C6.26224 20.0544 5.92645 20.3901 5.51224 20.3901C3.81549 20.3901 2.25948 19.1703 2.25931 17.4575C2.25931 16.259 2.24748 15.5542 2.07864 14.9722C1.92587 14.4457 1.6261 13.9724 0.89798 13.3374C0.0666678 12.6122 0.0666679 11.3878 0.897981 10.6626C1.62612 10.0276 1.92587 9.55429 2.07864 9.02783C2.24748 8.44584 2.25931 7.74101 2.25931 6.54248C2.25951 4.82975 3.81548 3.60986 5.51224 3.60986C5.92645 3.60986 6.26224 3.94565 6.26224 4.35986C6.26222 4.77406 5.92644 5.10986 5.51224 5.10986C4.44466 5.10986 3.75953 5.84426 3.75931 6.54248Z" fill="#A2FE00"/>
<path opacity="0.4" d="M8.24707 6.54248C8.24707 7.67494 8.24835 8.6165 8.00781 9.4458C7.751 10.3308 7.24161 11.0351 6.37207 11.7935C6.28422 11.8701 6.26282 11.946 6.2627 11.9995C6.2627 12.053 6.28394 12.1297 6.37207 12.2065C7.2416 12.9649 7.751 13.6692 8.00781 14.5542C8.24835 15.3835 8.24707 16.325 8.24707 17.4575C8.24726 18.1557 8.93237 18.8901 10 18.8901C10.4142 18.8901 10.75 19.2259 10.75 19.6401C10.75 20.0544 10.4142 20.3901 10 20.3901C8.30325 20.3901 6.74725 19.1703 6.74707 17.4575C6.74707 16.259 6.73524 15.5542 6.56641 14.9722C6.41363 14.4457 6.11387 13.9724 5.38574 13.3374C4.55443 12.6122 4.55443 11.3878 5.38574 10.6626C6.11388 10.0276 6.41363 9.55429 6.56641 9.02783C6.73525 8.44584 6.74707 7.74101 6.74707 6.54248C6.74728 4.82975 8.30324 3.60986 10 3.60986C10.4142 3.60986 10.75 3.94565 10.75 4.35986C10.75 4.77406 10.4142 5.10986 10 5.10986C8.93242 5.10986 8.24729 5.84426 8.24707 6.54248Z" fill="#A2FE00"/>
<path opacity="0.4" d="M15.7529 17.4575C15.7529 16.3251 15.7516 15.3835 15.9922 14.5542C16.249 13.6692 16.7584 12.9649 17.6279 12.2065C17.7158 12.1299 17.7372 12.054 17.7373 12.0005C17.7373 11.947 17.7161 11.8703 17.6279 11.7935C16.7584 11.0351 16.249 10.3308 15.9922 9.4458C15.7517 8.61649 15.7529 7.67497 15.7529 6.54248C15.7527 5.84429 15.0676 5.10986 14 5.10986C13.5858 5.10986 13.25 4.77408 13.25 4.35986C13.25 3.94565 13.5858 3.60986 14 3.60986C15.6967 3.60986 17.2528 4.82972 17.2529 6.54248C17.2529 7.74103 17.2648 8.44583 17.4336 9.02783C17.5864 9.5543 17.8861 10.0276 18.6143 10.6626C19.4456 11.3878 19.4456 12.6122 18.6143 13.3374C17.8861 13.9724 17.5864 14.4457 17.4336 14.9722C17.2648 15.5542 17.2529 16.259 17.2529 17.4575C17.2527 19.1703 15.6968 20.3901 14 20.3901C13.5858 20.3901 13.25 20.0543 13.25 19.6401C13.25 19.2259 13.5858 18.8901 14 18.8901C15.0676 18.8901 15.7527 18.1557 15.7529 17.4575Z" fill="#A2FE00"/>
<path d="M20.2407 17.4575C20.2407 16.3251 20.2394 15.3835 20.4799 14.5542C20.7367 13.6692 21.2461 12.9649 22.1157 12.2065C22.2035 12.1299 22.2249 12.054 22.225 12.0005C22.225 11.947 22.2038 11.8703 22.1157 11.7935C21.2461 11.0351 20.7367 10.3308 20.4799 9.4458C20.2394 8.61649 20.2407 7.67497 20.2407 6.54248C20.2405 5.84429 19.5554 5.10986 18.4877 5.10986C18.0735 5.10986 17.7377 4.77408 17.7377 4.35986C17.7377 3.94565 18.0735 3.60986 18.4877 3.60986C20.1845 3.60986 21.7405 4.82972 21.7407 6.54248C21.7407 7.74103 21.7525 8.44583 21.9213 9.02783C22.0741 9.5543 22.3739 10.0276 23.102 10.6626C23.9333 11.3878 23.9333 12.6122 23.102 13.3374C22.3739 13.9724 22.0741 14.4457 21.9213 14.9722C21.7525 15.5542 21.7407 16.259 21.7407 17.4575C21.7405 19.1703 20.1845 20.3901 18.4877 20.3901C18.0735 20.3901 17.7377 20.0543 17.7377 19.6401C17.7377 19.2259 18.0735 18.8901 18.4877 18.8901C19.5553 18.8901 20.2404 18.1557 20.2407 17.4575Z" fill="#A2FE00"/>
</svg>
